<svg
    xmlns="http://www.w3.org/2000/svg"
    viewBox="0 0 21 32"
    id="vector">
    <path
        id="path"
        d="M 0 23.09 L 0 29.21 C 0 30.75 1.2 32.01 2.68 32.01 L 18.73 32.01 C 20.2 32.01 21.41 30.75 21.41 29.21 L 21.41 23.09 C 21.41 23.09 0 23.09 0 23.09 Z"
        fill="#ffa300"/>
    <path
        id="path_1"
        d="M 21.4 6.69 C 21.4 5.22 20.2 4.01 18.72 4.01 L 15.71 4.01 L 15.71 1.39 C 15.71 0.62 15.09 0 14.32 0 L 7.08 0 C 6.31 0 5.69 0.62 5.69 1.39 L 5.69 4.01 L 2.68 4.01 C 1.21 4.01 0 5.21 0 6.69 L 0 23.14 C 0 23.14 21.4 23.14 21.4 23.14 L 21.4 6.69 Z"
        fill="#b2b2b2"
        fill-opacity="0.5"
        stroke-opacity="0.5"/>
</svg>
