<?xml version="1.0" encoding="utf-8"?>
<!-- Generator: Adobe Illustrator 25.2.0, SVG Export Plug-In . SVG Version: 6.00 Build 0)  -->
<svg version="1.1" id="Layer_1" xmlns="http://www.w3.org/2000/svg" xmlns:xlink="http://www.w3.org/1999/xlink" x="0px" y="0px"
	 viewBox="0 0 743 196.6" style="enable-background:new 0 0 743 196.6;" xml:space="preserve">
<style type="text/css">
	.st0{fill:#083C3D;}
</style>
<g transform="translate(-196.91 -285.43)">
	<path class="st0" d="M903.9,481.4c-5.5-0.5-11.4-3.4-14.5-6.9c-2.3-2.7-3.9-5.9-4.6-9.3c-0.8-3.4-0.6-5-0.6-42.3
		c0-44.7,0-40.6,2.4-47.1c2-3.7,5-6.7,8.6-8.8c5.1-2.5,10.9-3.4,16.5-2.6c12.3,1.4,18,7.3,19.1,19.7c0.2,2.5,0.3,16.9,0.3,41.2
		c-0.1,37.1-0.1,35.3-0.9,39.8c-1.9,6.6-5.5,11.1-11.2,14C915.3,480.9,909.2,481.8,903.9,481.4L903.9,481.4z M592.7,481.4
		c-22.1-1-41.2-10-55.9-26c-10.5-11.2-17.4-25.3-19.8-40.4c-1.3-7.7-1.5-13.4-1.3-62.5c0.1-52.6-0.5-46.9,2.7-53.9
		c2.8-5.5,7.9-9.5,13.9-11c4.6-0.9,9.3-0.8,13.9,0.2c7.8,2.1,13.9,8.3,15.8,16.2c0.5,1.9,0.6,6.5,0.7,51.9l0.2,49.8
		c0.5,10.3,6.9,19,14.1,23.5c11.2,7.9,27.3,7.5,39,0.6c9.7-6.5,15.4-16.1,16.6-26.4c0.2-1.9,0.4-20.6,0.4-50.1
		c0-52.2-0.1-49.4,2.2-54.2c2.9-5.9,8.2-10.2,14.5-11.8c4.5-0.8,9.1-0.8,13.7,0c3.7,0.9,7.1,2.8,9.8,5.4c4.1,3.8,6.1,8.4,6.4,11.8
		V356c0,58,0.1,55-2.5,65.4c-4.1,16.1-13.2,30.5-25.9,41.2C635.3,476.2,615.9,482.4,592.7,481.4z M218.7,481.4
		c-5.6-0.5-11.5-3.4-14.5-6.9c-2.1-2.8-3.7-5.9-4.6-9.3c-0.8-3.8-0.6-5.5-0.6-53.1c0-39.8,0.1-51.6,0.4-54.4
		c2.3-18.2,9.4-33.3,21.6-46c15.3-15.9,33.9-24.2,56.4-25.1c6.1-0.3,9.1,0.1,12.7,1.4c5.7,2.3,10.2,6.7,12.6,12.4
		c1.3,3.6,1.9,7.4,1.6,11.1c-0.6,10-5,16.4-13.4,19.6c-3.5,1.2-7,2-10.7,2.3c-7.1,0.9-10.6,1.9-15.7,4.5
		c-6.6,3.2-11.9,8.5-15.3,14.9c-1.1,2.4-2,4.9-2.6,7.5c-0.7,4.2-0.4,13.6-0.6,51.8c0.3,44.9,0.4,48.3-0.9,52.9
		c-1.9,6.6-5.4,11.1-11.2,14C230.1,480.9,224,481.8,218.7,481.4L218.7,481.4z M761.3,467.4c-1.6-3.2-59.6-150.4-60.4-153.2
		c-1.2-3.7-1.2-7.7,0-11.4c2.4-7.7,9.6-14.2,17.8-16.1c5.5-1.2,12.5-0.4,16.9,1.9c3.2,1.9,5.9,4.6,7.8,7.8c1.5,2.5,1.3,2,22.6,56.2
		c8.3,21,15.2,38,15.2,37.9s8.3-20.8,18.2-45.9c12.7-32.1,18.4-46.4,19.5-48.3c2.8-5,7.6-8.5,13.2-9.8c4.6-0.8,9.3-0.6,13.8,0.7
		c3.9,1.3,7.4,3.5,10.2,6.5c2.7,2.5,4.6,5.7,5.5,9.2c1.1,3.5,1.1,7.2,0,10.7c-0.6,2.7-58.2,149-60.4,153.5
		C792.7,487.7,768.4,483.8,761.3,467.4L761.3,467.4z"/>
	<path class="st0" d="M405.6,481.7c-22.1-1-41.1-9.9-55.9-26c-10.4-11.2-17.3-25.2-19.8-40.3c-1.3-7.7-1.4-13.4-1.3-62.5
		c0.1-52.6-0.5-46.9,2.7-54c2.8-5.5,7.9-9.5,14-11c4.6-0.9,9.3-0.8,13.8,0.2c7.8,2.1,13.9,8.3,15.8,16.2c0.5,1.9,0.6,6.6,0.8,51.9
		l0.2,49.9c0.7,9.6,5.9,18.3,14.1,23.5c11.2,7.9,27.3,7.6,39,0.6c5.7-3.4,10.2-8.4,13.1-14.4c1.9-3.8,3.1-7.9,3.5-12.1
		c0.2-1.9,0.3-20.6,0.3-50.1c0-52.2-0.1-49.5,2.2-54.2c2.9-5.9,8.2-10.2,14.5-11.8c3-0.9,10.7-0.9,13.7,0c3.7,1,7,2.8,9.8,5.4
		c4,3.8,6.1,8.4,6.4,11.8v51.6c0,58,0.1,55-2.5,65.4c-4.1,16.1-13.2,30.5-25.9,41.2C448.3,476.6,428.8,482.8,405.6,481.7
		L405.6,481.7z"/>
	<path class="st0" d="M936.6,314.9c0,16.3-13.2,29.4-29.5,29.4s-29.5-13.2-29.5-29.5s13.2-29.4,29.4-29.4
		C923.4,285.4,936.6,298.6,936.6,314.9L936.6,314.9z"/>
</g>
</svg>
