<svg version="1.2" baseProfile="tiny-ps" xmlns="http://www.w3.org/2000/svg" viewBox="0 0 652 190" width="652" height="190">
	<title>ruuvi-vector-logo-svg</title>
	<style>
		tspan { white-space:pre }
		.shp0 { fill: #ffffff } 
		.shp1 { fill: #160000 } 
	</style>
	<g id="Layer">
		<path id="Layer" class="shp0" d="M620 94.5C620 129 591.4 157 556.2 157C521 157 492.4 129 492.4 94.5C492.4 60 521 32 556.2 32C591.4 32 620 60 620 94.5Z" />
		<path id="Layer" fill-rule="evenodd" class="shp1" d="M626.6 94.8C626.6 133.4 595.1 164.9 556.5 164.9C517.9 164.9 486.4 133.4 486.4 94.8C486.4 56.2 517.9 24.7 556.5 24.7C595.1 24.7 626.6 56.2 626.6 94.8ZM499.6 94.8C499.6 126.3 525 151.7 556.5 151.7C588 151.7 613.4 126.3 613.4 94.8C613.4 63.3 588 37.9 556.5 37.9C525 37.9 499.6 63.3 499.6 94.8Z" />
		<path id="Layer" class="shp1" d="M451.9 154.1C448.6 153.8 445 152.1 443.1 149.9C441.2 147.5 440.8 146.2 440.3 144.3C439.8 142.2 439.9 141.3 439.9 118.8C439.9 91.8 439.9 94.3 441.4 90.4C442.4 88.4 444.6 86.2 446.6 85.1C449.4 83.6 452.8 83.1 456.6 83.5C464 84.4 467.4 87.9 468.1 95.4C468.2 96.9 468.3 105.6 468.2 120.2C468.1 142.6 468.1 141.5 467.7 144.2C466.6 148.2 464.4 150.9 460.9 152.7C458.8 153.9 455.1 154.4 451.9 154.1L451.9 154.1ZM264.2 154.1C250.9 153.5 239.4 148.1 230.5 138.4C224 131.3 220.1 123.4 218.6 114.1C217.8 109.4 217.7 106 217.8 76.4C217.9 44.6 217.5 48.1 219.4 43.8C221 40.6 224 38.2 227.8 37.2C229.8 36.7 234.1 36.7 236.2 37.3C241 38.7 244.4 42.1 245.7 47.1C246 48.2 246.1 51 246.2 78.4L246.3 108.5C246.6 114.7 250.5 120 254.8 122.7C261.5 127.5 271.3 127.3 278.3 123.1C284.2 119.2 287.6 113.4 288.3 107.2C288.4 106.1 288.5 94.8 288.5 77C288.5 45.5 288.4 47.2 289.8 44.3C291.5 40.8 294.6 38.3 298.6 37.2C300.4 36.7 305 36.7 306.9 37.2C309.1 37.8 311.1 38.8 312.8 40.4C315.3 42.7 316.5 45.5 316.7 47.5L316.7 78.7C316.7 113.7 316.8 111.9 315.2 118.1C312.8 127.7 307.4 136.2 299.6 143C289.9 151 278.2 154.7 264.2 154.1L264.2 154.1ZM38.5 154.1C35.2 153.8 31.6 152.1 29.7 149.9C28.7 148.7 27.4 146.1 26.9 144.3C26.4 142 26.5 141 26.5 112.2C26.5 88.2 26.6 81.1 26.8 79.4C28.2 68.4 32.4 59.3 39.8 51.6C49 42 60.3 37 73.8 36.5C77.5 36.4 79.3 36.6 81.5 37.4C84.8 38.7 87.7 41.4 89.1 44.9C89.8 46.6 90.2 49.4 90.1 51.6C89.7 57.6 87.1 61.5 82 63.4C80.1 64.1 78.7 64.4 75.6 64.8C71.3 65.3 69.2 65.9 66.1 67.5C62 69.6 58.7 72.8 56.9 76.5C56.4 77.5 55.8 79.2 55.3 81C54.9 83.6 55 89.2 54.9 112.3C55.1 139.4 55.1 141.5 54.3 144.2C53.2 148.2 51 150.9 47.5 152.6C45.3 153.9 41.6 154.4 38.5 154.1ZM365.9 145.7C364.9 143.7 329.9 55 329.5 53.3C328.6 50.2 329 48 329.5 46.4C330.9 41.7 335.2 37.8 340.3 36.7C343.6 36 347.8 36.4 350.5 37.8C352.1 38.6 354.2 40.7 355.2 42.5C356.1 44.1 356 43.8 368.9 76.4C373.9 89.1 378 99.4 378.1 99.3C378.2 99.2 383.1 86.8 389.1 71.6C396.7 52.2 400.2 43.6 400.9 42.5C402.7 39.4 405.6 37.3 408.8 36.6C411.1 36.1 415.1 36.3 417.1 37C419.5 37.8 421.3 39 423.3 40.9C425.1 42.8 426 44.3 426.6 46.5C427 48 427.4 49.8 426.6 53C426.2 54.6 391.5 142.9 390.1 145.6C384.8 157.9 370.1 155.6 365.9 145.7L365.9 145.7Z" />
		<path id="Layer" class="shp1" d="M151.3 154.3C138 153.7 126.5 148.3 117.6 138.6C111.1 131.5 107.2 123.6 105.7 114.3C104.9 109.6 104.8 106.2 104.9 76.6C105 44.8 104.6 48.3 106.5 44C108.1 40.8 111.1 38.4 114.9 37.4C116.9 36.9 121.2 36.9 123.3 37.5C128.1 38.9 131.5 42.3 132.8 47.3C133.1 48.4 133.2 51.2 133.2 78.6L133.3 108.7C133.6 114.9 137.5 120.2 141.8 122.9C148.6 127.7 158.3 127.5 165.3 123.3C168.7 121.3 171.4 118.3 173.2 114.6C174.4 112.1 175 110.1 175.3 107.3C175.4 106.2 175.5 94.9 175.5 77.1C175.5 45.6 175.4 47.3 176.8 44.4C178.5 40.9 181.6 38.4 185.6 37.3C187.4 36.8 192 36.8 193.9 37.3C196.1 37.9 198.1 38.9 199.8 40.5C202.3 42.8 203.5 45.6 203.7 47.6L203.7 78.8C203.7 113.8 203.8 112 202.2 118.2C199.8 127.8 194.4 136.3 186.6 143.1C177 151.2 165.2 155 151.3 154.3L151.3 154.3Z" />
		<path id="Layer" class="shp1" d="M471.6 53.6C471.6 63.4 463.6 71.4 453.8 71.4C444 71.4 436 63.4 436 53.6C436 43.8 444 35.8 453.8 35.8C463.6 35.8 471.6 43.8 471.6 53.6Z" />
		<path id="Layer" class="shp1" d="M571 131.6C582.4 130.5 592.5 124.3 598.6 114.6C600.2 112.1 601.9 108.4 602.7 105.5C604.7 98.7 604.6 90.9 602.5 84.3C600.4 77.6 596 71.1 590.6 66.8C581.6 59.6 570 57 558.9 59.8C558 60 557.2 60.2 557.1 60.2C557 60.2 557.2 60.7 557.5 61.3C558.5 63.3 559.2 65.7 559.5 68C559.7 69.5 559.7 73.1 559.5 74.8C558.3 83.2 552.6 90.4 544.8 93.5C541.1 95 536.3 95.6 532.7 95C532 94.9 531.4 94.8 531.3 94.8C531.1 94.8 531.1 95.1 531.2 96.9C531.7 109.1 538.2 120.2 548.7 126.6C553.5 129.6 558.7 131.2 564.8 131.8C565.8 131.8 569.6 131.8 571 131.6L571 131.6Z" />
	</g>
</svg>